<?xml version="1.0" encoding="utf-8"?>
<!-- Generator: Adobe Illustrator 24.1.0, SVG Export Plug-In . SVG Version: 6.00 Build 0)  -->
<svg version="1.1" xmlns="http://www.w3.org/2000/svg" xmlns:xlink="http://www.w3.org/1999/xlink" x="0px" y="0px"
	 viewBox="0 0 438 159" style="enable-background:new 0 0 438 159;" xml:space="preserve">
<style type="text/css">
	.st0{fill:#FFF200;}
	.st1{fill:#EDEDED;}
	.st2{fill:#C6C6C6;}
	.st3{fill:#FFFFFF;}
</style>
<g id="BACKGROUND">
</g>
<g id="OBJECTS">
	<g id="XMLID_10_">
		<g id="XMLID_2_">
			<g id="XMLID_3_">
				<g>
					<path id="XMLID_91_" class="st0" d="M127.43,67.59c-5.65,0-10.24,4.6-10.24,10.24v8.47v12.13v21.31c0,3.31-2.69,6-6,6
						c-3.31,0-6-2.69-6-6v-33V86.3V44.31c0-5.65-4.6-10.24-10.24-10.24c-5.65,0-10.24,4.6-10.24,10.24v46.96v28.54v15.95
						c0,3.31-2.69,6-6,6c-3.31,0-6-2.69-6-6V34.33v-0.27v-16.5c0-5.65-4.6-10.24-10.24-10.24c-5.65,0-10.24,4.6-10.24,10.24v72.35
						v27.27c0,3.31-2.69,6-6,6s-6-2.69-6-6V98.44v-8.52v-27.3c0-5.65-4.6-10.24-10.24-10.24c-5.65,0-10.24,4.6-10.24,10.24v29.66
						h4.24V62.62c0-3.31,2.69-6,6-6s6,2.69,6,6v27.3v8.52v18.75c0,5.65,4.6,10.24,10.24,10.24c5.65,0,10.24-4.6,10.24-10.24V89.92
						V17.57c0-3.31,2.69-6,6-6c3.31,0,6,2.69,6,6v16.5v0.27v101.42c0,5.65,4.59,10.24,10.24,10.24c5.65,0,10.24-4.6,10.24-10.24
						v-15.95V91.27V44.31c0-3.31,2.69-6,6-6c3.31,0,6,2.69,6,6V86.3v0.45v33c0,5.65,4.59,10.24,10.24,10.24
						c5.65,0,10.24-4.6,10.24-10.24V98.44V86.3v-8.47c0-3.31,2.69-6,6-6c3.31,0,6,2.69,6,6v14.21h4.24V77.83
						C137.68,72.18,133.08,67.59,127.43,67.59z"/>
					<g id="XMLID_80_">
						<g id="XMLID_89_">
							<rect id="XMLID_90_" x="16.35" y="94.51" class="st1" width="11" height="21.99"/>
						</g>
						<g id="XMLID_87_">
							<rect id="XMLID_88_" x="19.99" y="118.53" class="st2" width="4.4" height="14.25"/>
						</g>
						<g id="XMLID_85_">
							<rect id="XMLID_86_" x="19.99" y="133.94" class="st2" width="4.4" height="1.76"/>
						</g>
						<g id="XMLID_83_">
							<path id="XMLID_84_" class="st2" d="M22.19,138.66c1.21,0,2.2,0.98,2.2,2.2c0,1.21-0.98,2.2-2.2,2.2
								c-1.21,0-2.2-0.98-2.2-2.2C19.99,139.65,20.97,138.66,22.19,138.66z"/>
						</g>
						<g id="XMLID_81_">
							<rect id="XMLID_82_" x="20.83" y="136.82" class="st2" width="2.56" height="3.08"/>
						</g>
					</g>
				</g>
			</g>
		</g>
		
			<ellipse id="XMLID_8_" transform="matrix(0.9928 -0.1199 0.1199 0.9928 -10.3569 16.9206)" class="st0" cx="135.41" cy="94.51" rx="5.44" ry="5.44"/>
	</g>
	<g id="XMLID_13_">
		<g id="XMLID_1_">
			<path class="st3" d="M199.7,59.35h-12.59l-2.08,6.02h-6.66l11.37-31.66h7.38l11.37,31.66h-6.7L199.7,59.35z M193.4,41.06
				l-4.57,13.22h9.15L193.4,41.06z"/>
			<path class="st3" d="M228.13,33.36c7.02,0,12.73,3.76,14.85,10.24h-7.29c-1.49-3.03-4.21-4.53-7.61-4.53
				c-5.53,0-9.47,4.03-9.47,10.46c0,6.39,3.94,10.46,9.47,10.46c3.4,0,6.11-1.49,7.61-4.57h7.29c-2.13,6.52-7.83,10.24-14.85,10.24
				c-9.1,0-16.03-6.66-16.03-16.12C212.1,40.06,219.03,33.36,228.13,33.36z"/>
			<path class="st3" d="M268.71,59.35h-12.59l-2.08,6.02h-6.66l11.37-31.66h7.38l11.37,31.66h-6.7L268.71,59.35z M262.41,41.06
				l-4.57,13.22h9.15L262.41,41.06z"/>
			<path class="st3" d="M310.37,49.62c0,9.56-6.57,15.76-16.67,15.76h-11.05V33.77h11.05C303.8,33.77,310.37,40.02,310.37,49.62z
				 M293.47,59.99c6.66,0,10.42-3.8,10.42-10.37c0-6.57-3.76-10.51-10.42-10.51h-4.48v20.88H293.47z"/>
			<path class="st3" d="M334.36,38.88h-12v7.92H333v5.03h-10.64v8.38h12v5.16h-18.34V33.72h18.34V38.88z"/>
			<path class="st3" d="M341.02,33.77h7.2l10.05,23.5l10.05-23.5h7.16v31.61h-6.34V44.82l-8.47,20.56h-4.8l-8.51-20.56v20.56h-6.34
				V33.77z"/>
			<path class="st3" d="M380,33.77h7.16l6.79,14.45l6.75-14.45h7.07l-10.69,20.61v11h-6.34v-11L380,33.77z"/>
			<path class="st3" d="M179.45,87.65h12.32l7.07,19.25l6.88-19.25H218v32.06h-10.01v-15.99l-4.94,15.99h-8.6l-4.94-15.99v15.99
				h-10.05V87.65z"/>
			<path class="st3" d="M223.24,87.65h10.01v18.07c0,2.76,1.09,4.8,4.12,4.8c3.03,0,4.26-2.04,4.26-4.8V87.65h10.01v18.07
				c0,9.46-6.48,14.31-14.49,14.31s-13.9-4.85-13.9-14.31V87.65z"/>
			<path class="st3" d="M269.43,120.03c-7.34,0-13.09-3.4-13.54-10.6h10.69c0.18,2.35,1.45,2.76,2.45,2.76s1.95-0.45,1.95-1.58
				c-0.04-4.35-15.17-2.76-14.99-13.72c0-6.43,5.43-9.78,12.27-9.78c7.74,0,12.73,3.71,13,10.37h-10.82
				c-0.09-1.95-1.13-2.54-2.22-2.54c-0.82,0-1.45,0.54-1.45,1.63c0,4.03,14.9,3.35,14.9,13.22
				C281.66,115.68,277.17,120.03,269.43,120.03z"/>
			<path class="st3" d="M286.09,87.65h10.05v32.06h-10.05V87.65z"/>
			<path class="st3" d="M316.52,87.33c8.47,0,14.22,5.07,15.53,12.63h-10.6c-0.95-2.13-2.85-3.35-5.12-3.35
				c-3.4,0-5.48,2.76-5.48,7.02s2.08,7.02,5.48,7.02c2.26,0,4.17-1.22,5.12-3.35h10.6c-1.31,7.56-7.06,12.64-15.53,12.64
				c-9.83,0-15.85-6.75-15.85-16.3S306.69,87.33,316.52,87.33z"/>
		</g>
	</g>
</g>
<g id="DESIGNED_BY_FREEPIK">
</g>
</svg>
